<svg id="Layer_1" data-name="Layer 1" xmlns="http://www.w3.org/2000/svg" viewBox="0 0 445.93 574.27"><title>pokey</title><path d="M486.52,586.69c3.92,5.48,9,7.86,14.17,9.92,23.48,9.29,47,18.41,70.49,27.74,14.37,5.72,29.39,10.69,40.51,22,7.16,7.26,13.21,15.73,19.07,24.14,7.14,10.23,3.45,17.89-3,25.83-2.48,3-2.5,5.28-1.18,8.42,5.31,12.61,14.77,21.75,25.58,29.4a237.58,237.58,0,0,0,25.62,15.42c6.73,3.58,10.62,8.32,10.23,16.12-0.36,7.24-.42,14.51-1.21,21.71-0.26,2.41-2,4.91-3.64,6.88-3.76,4.49-8.54,3.8-11.13-1.52s-5-10.54-7.09-16c-2.05-5.27-5.62-8.06-11.22-8.35l-10.7-.55c0.82,6.49,1.42,12.57,2.4,18.59,0.47,2.85-.55,3.87-3.14,4.43-6.83,1.48-12.43-1.22-16.56-6-4.87-5.64-10.5-7.27-17.65-7-10,.41-20-0.39-30,0.07-15.25.7-28.38-4.38-40.39-13.24-1.07-.79-2.14-1.59-3.23-2.36a5.06,5.06,0,0,0-1-.4c-9.57,20.13-28,20.46-46.43,20.59-16.15.12-30.63-5.45-44.43-13.27-6.2-3.52-12.28-7.32-18.7-10.37-3.52-1.67-7.62-2.16-11.51-3-19.54-4.06-39.41-6.91-58.57-12.3-34.36-9.66-57.41-30.94-66.19-67-3.71-15.21-11.06-29.54-16.77-44.27-6.83-17.66-8.4-35.53-2-53.65,4.77-13.41,13.54-23.54,25.77-30.72,1-.59,2-1.15,3-1.77a4.9,4.9,0,0,0,.8-1,13.59,13.59,0,0,0-1.83-2.08c-38.7-29.55-56.33-69-54.41-117.26,0.52-12.9,3.55-25.68,5-38.57,0.83-7.54.43-15.21,1.13-22.78a96.41,96.41,0,0,1,3-15.67c9.88-37.3,28.76-69.35,57-95.63,15.3-14.24,34.29-21.42,54.28-26.13,25-5.9,50.15-5.12,75.37-.61,16,2.87,32.13,6.2,48.59,4.5,12.25-1.26,24.42-3.33,36.69-4.27a133.23,133.23,0,0,1,24.39.39c15,1.62,26.76,22,21.28,36.08-2,5.12-3.82,10.33-6.26,15.23-2,4-1.45,7.37.24,11.3,5.58,13,11,26,16.07,39.22,2.61,6.86,2.75,14.05,2.34,21.56-0.89,16.62-.62,33.31-0.3,50,0.07,3.38,2,7,3.88,10,7.07,10.89,15,21.22,21.55,32.42,2.63,4.54,3,10.74,3.2,16.22,0.15,4.34-3.05,7.53-7.1,9.5-6.58,3.21-13.23,6.31-19.64,9.82-8.23,4.51-8.71,7.35-4.34,15.47,1.75,3.26,3.29,7.06,3.36,10.64,0.05,2.67-2,5.76-3.86,8s-3,3.86-1.26,6.89c3.27,5.75,2.72,9.91-2.12,14.33-5.09,4.65-7,10-6.8,16.86a74.77,74.77,0,0,1-1.35,18.82c-2.21,9.84-7.62,13.88-18.14,14.51-17.28,1-34.57,1.81-51.86,2.64C493.45,586.82,490.4,586.69,486.52,586.69Zm-99.6-78.19,1,0.41c2.07-2.94,4-6,6.24-8.82,15-19.51,35.63-25.56,58.44-16.83,3.24,1.24,4.33-.59,5.67-2.24,12.17-15,24.94-29.56,36.2-45.21,23.38-32.49,39.74-68.34,48.1-107.65,3.8-17.85,5.34-36.26,13.37-53.07,2.22-4.65,4-9.49,5.91-14.3,3.57-9.12-4.39-25-14.11-25.8-12.35-1-25.15-1.55-37.25.58a190.79,190.79,0,0,1-71.42-1.2c-24.06-4.82-48.22-5.92-72.37-.51-18.72,4.19-37.17,10-51.24,23.32-34.1,32.3-57.53,70.24-59.53,119-0.53,12.89-4,25.63-5.47,38.51-4.14,35.32,3.12,67.89,24.62,96.7a111.53,111.53,0,0,0,24.48,24.39l17.37-18.44c-2.75-6.6-2.18-9.58,3.05-14.2a23.36,23.36,0,0,1,6.16-4.18c3-1.26,3.65-3.19,3.64-6.2,0-9-.18-18,0.48-26.92,0.68-9.25,1.3-18.72,7.11-26.65,3.86-5.27,8-7,12.23-5.51,5,1.75,8.31,7.17,8.09,13-0.35,9.32-.7,18.63-1,28-0.1,3.38,0,6.76,0,10.25,8.52-2.39,10.38-1.64,14.09,5.66a28,28,0,0,0,1.2-3.37c1.78-8.29,3.1-16.71,5.35-24.86,3-10.78,9.5-18.87,20-23.49,7.35-3.23,12.89.85,16.4,5.63,3.06,4.17,2,9.75-2.38,14.52-1,1.1-2.23,2-3.13,3.23-4.59,6-11.56,10.16-13.78,18s-4.72,15.53-7,23.33A27.07,27.07,0,0,0,386.92,508.5ZM493,578.61a9,9,0,0,0,1.91.48q27.43-1.19,54.86-2.45c5.06-.24,8.16-3.58,9-8a80.29,80.29,0,0,0,1.67-18.26c-0.31-8.76,2-16,8.67-21.86,1.09-1,1.45-4.05.76-5.49-3.16-6.61-3-10.49,2.21-15.08,3.16-2.75,2.91-5.19,1.07-8.24-1.21-2-2.35-4-3.49-6.05-2.94-5.22-2.66-10.45,1.25-14.83a40.1,40.1,0,0,1,9.69-7.64,177.68,177.68,0,0,1,17.37-8.75c4-1.76,5.1-4.65,4.38-8.42a22.21,22.21,0,0,0-2.71-7.91c-6.83-10.44-14.35-20.44-20.82-31.1-2.9-4.78-5.33-10.67-5.52-16.14-0.56-16-.34-32,0.51-47.93,0.44-8.2-.29-16-3.2-23.48-3.91-10.07-8.34-19.93-12.57-29.87a6.83,6.83,0,0,0-1.07-1.38l-1.51-.39c-7.92,75.61-42.71,138-93.72,192.41,14.69,11.18,27.3,23.24,34.22,39.9C503.17,545.25,502.05,562.19,493,578.61Zm-62.59,16c13-1.06,22.58-2.26,32.17-2.47,5.76-.13,10.5-1.8,14.39-5.68,13.6-13.58,19.82-29.76,14.25-48.63-6.77-22.94-22.81-38.6-43.88-48.4-13.51-6.28-27.25-3.14-38.75,6.49-16.07,13.45-22.32,31.48-22.16,51.87,0.08,10,.68,20.28,6.43,28.85,3.41,5.07,7.83,10.9,13.13,13C414.67,592.94,424.4,593.49,430.46,594.62Zm66.62,104.63a11.22,11.22,0,0,0,1.05,1.19c17.1,13,29,29.52,34.87,50.32a5.64,5.64,0,0,0,2,2.67c3,2.32,6.12,4.6,9.32,6.71,8.86,5.83,18.17,10.27,29.18,10.21,13.66-.06,27.31.27,41,0.33a17.69,17.69,0,0,1,13.66,6.06c2.36,2.57,5.36,4.57,8.18,6.91,3.92-9.21-6.78-15-3.71-23.84,7,0.4,13.82,1,20.61,1.13,9.24,0.19,15.36,4.42,18.69,13,1.7,4.39,3.81,8.62,5.94,13.39,4.8-6.2,2.59-12.37,3.05-18.21,0.59-7.41-3-11.17-9.46-14.46-22.4-11.41-42.81-25.25-53-49.55-6,1.6-11.83,4.27-17.79,4.54-15.77.71-31.59,0.68-47.38,0.34-10.77-.23-21.67-0.64-32.23-2.51C513,706.1,505.43,702.24,497.09,699.26ZM396.87,745.34l0.61-1.07c-16.39-13.32-27-31-37.56-48.74-10.23-17.16-25.68-29.65-40.46-42.48-12.7-11-22.9-23.17-26.82-39.77-0.81-3.41-.72-7-1.09-11l6,0.86L305.22,627l1.94-.5c-7.52-23.44-4.19-48-7.53-72.5C286.94,561,279,571.05,274.94,584.16c-4.76,15.47-2.84,30.57,2.85,45.44,6.06,15.83,13.06,31.4,17.64,47.65,5.2,18.48,14.65,33.3,29.87,44.69,8.76,6.56,18.32,11.66,28.95,14.19C368.38,739.52,382.66,742.3,396.87,745.34ZM544.2,674.8l-2.89-.81c-16.19-4.41-32.6-8.16-48.52-13.38-24.47-8-48.95-16.46-71-30.06-27.28-16.81-50.24-37.81-62.08-68.76-0.48-1.27-2.52-2.42-4-2.74-7.45-1.58-13.58,1.62-19.67,6a66.31,66.31,0,0,0,2.4,7.49c13.62,30.09,34.28,54.22,62.69,71,14.12,8.35,29.29,15,44.14,22q34,16.18,68.19,31.83c4.41,2,9.32,3,12.34,3.89ZM554.75,654c-3.82-11.25-7-20.81-10.37-30.32a4.55,4.55,0,0,0-2.27-2.4c-11.77-5-23.43-10.27-35.44-14.6-9.14-3.29-18.25-6.26-24.68-13.1-4.48,2-8.43,4.83-12.64,5.29-13.18,1.44-26.46,2.69-39.69,2.6a90.6,90.6,0,0,1-25.9-4.23c-8.16-2.54-13.89-9.25-17.54-16.93-3-6.37-4.89-13.3-7.27-20H367.27a97.05,97.05,0,0,0,25,37.36A147.58,147.58,0,0,0,457.42,633C489.16,640.87,521.35,646.87,554.75,654ZM315.12,534.25c-2.07.84-4.44,1.29-6.15,2.59-4.42,3.36-2.45,8-2.14,12.41,1.18,17.09,1.63,34.24,3.12,51.29,2,23.19,8.8,44.16,28.23,59.42,14.28,11.21,25.14,25.49,34.11,41.34a141.18,141.18,0,0,0,15.93,22.91A110,110,0,0,0,407.07,741c4.88,3.52,10.9,5.47,16.44,8,1,0.45,2.31,1,3.17.67,7.7-2.82,13.81-7.51,17.58-15.22-1.52-.94-2.63-1.66-3.78-2.31C419,719.93,399,705.59,379.88,690c-9.21-7.48-18.05-15.19-24.25-25.55-17.35-29-26.8-60.36-27.37-94.2-0.07-4.4-1.71-6.18-5.37-7.36-8-2.58-8.49-3.71-5.47-11.72C311.52,545,311.34,543.39,315.12,534.25Zm6.77,7.31c1.3,4.91,2.28,8.94,3.48,12.91,0.25,0.82,1.24,2,1.93,2,2.79,0.11,6.08.74,8.3-.47,7-3.79,14-5.81,22-4.39A129.58,129.58,0,0,0,373,552.95c3.88,0.22,5.82-1.16,6.13-5.72,0.57-8.25,2.2-16.42,3.27-24.64,0.22-1.68.45-3.71-.26-5.09-3.54-6.91-3.09-13.67-.28-20.67,1.41-3.51,1.84-7.4,3.17-10.94,2.25-6,4.13-12.36,7.53-17.7,3.24-5.11,8.4-9,12.33-13.69,1.34-1.61,2.68-4.8,2-6.2-1.59-3-4.7-3.69-8.13-1.84-7.84,4.24-12.52,10.84-14.57,19.3-1.91,7.92-3.26,16-5.16,23.9a32.66,32.66,0,0,1-3.84,10.18c-1.43,2.19-5,5.1-6.59,4.56-2.26-.78-3.86-4.23-5.15-6.83-0.8-1.62-.52-3.77-0.72-5.69l-1.16-.43a26.84,26.84,0,0,1-2.85,4.54,74.82,74.82,0,0,1-5.84,5.14c-1.45-2.13-3-4.21-4.27-6.44a6,6,0,0,1-.24-3Q349,474,349.73,456.33c0.13-3.16.57-6.35,0.26-9.47-0.19-1.94-1.53-3.76-2.35-5.64-1.64,1.14-4,1.93-4.77,3.5-1.75,3.7-3.55,7.7-3.87,11.7q-1.54,19.13-1.87,38.35c-0.08,5.06-.81,8.49-6.21,10.3-3,1-5.53,3.66-8.46,5.71,11,9.78-2.15,11.47-4.2,16.64C329,533.77,329,533.77,321.88,541.57Zm128,175.4c-0.31-3.45-.55-6.26-0.82-9.06-1.49-15.55-6.82-28.69-22.13-35.73-2.25-1-4.15-2.79-6.32-4-21.1-11.84-39.42-27.22-56.08-44.58-7.11-7.4-13.53-15.46-20.27-23.22C361.86,654.77,398.73,691.82,449.84,717Zm45.06-8.92c0.74,5.14,1.31,9.57,2,14,1.54,9.43,5,17.82,12.65,24.14a19.66,19.66,0,0,1,4.9,6.22c0.85,1.7,1.38,4.54.51,5.83s-4.06,1.84-5.55,1.18c-9.06-4-16.72-1.4-23.89,4.31-3.77,3-7.5,6.07-12.21,9.9,3.85,0.53,6,.92,8.1,1.09,11.17,0.91,22.3,1,32.89-3.44,9.73-4.06,13.72-11.21,10.7-21.07-5-16.44-14.86-29.89-27.9-41A12.57,12.57,0,0,0,494.91,708.05Zm-15.82-61.36L478.84,648c40.18,14.09,80.72,26.25,124,23.83l0.4-2.12Zm144,26.13c-10.21,8.32-19.57,17.46-26.18,29.77,12.75-1.1,22.23-6,27-13.55C628.16,682.38,628,679.2,623.11,672.82ZM441.75,760a38.48,38.48,0,0,1,4,2.44c4,3.27,7,2.41,10.6-1.13,4.8-4.75,10.29-8.8,16.16-13.73-2.86-.59-6.14-2.4-8.18-1.47-6,2.69-11.47,6.43-17.09,9.86C445.44,757,443.87,758.39,441.75,760ZM351.56,638.25c3.44,17.65,31.6,51.09,46,54.39A212.43,212.43,0,0,1,351.56,638.25ZM460.18,725c4.71-17.44.71-35.48-6.51-35.74,1.2,10.2,2.34,20.53,3.71,30.83C457.58,721.53,458.92,722.83,460.18,725ZM500,748.64a5,5,0,0,0-1.4-1.52c-26.65-8.57-51.45-21-75.06-35.91a3.68,3.68,0,0,0-1.53,0C435.18,723.59,487.35,748.67,500,748.64Zm55.3-123-2.11,1c2.83,7.72,5.86,15.38,8.42,23.18,1.61,4.9,4.76,6,10.62,5.31Zm47,36.3c-4.94-13.33-12.78-22.93-19.84-23.52,3.55,6.46,6.92,12.52,10.21,18.63C594.75,660.91,598.15,661.88,602.29,661.93ZM486.7,752.51c-12.45.55-19.23,9-26.94,16.71,2.49,0.74,5.74,1.75,7.25.56C473.48,764.71,479.45,759,486.7,752.51Zm49.92-53.32c10.47-4.67,16.34-11.41,19.19-20.81A42.86,42.86,0,0,0,536.62,699.2Zm28.94-21.47c-2.25,4.25-4.14,8.75-6.85,12.69S552.3,698,549,701.91C558.21,698.37,567.33,686.09,565.56,677.73ZM583,658.51l0.69-.87c-3.56-7.63-7-15.32-10.76-22.86-0.69-1.38-2.51-2.2-3.8-3.28,1.27,4.72,3.52,8.4,5.37,12.27s3.15,8,5,11.87C580.11,656.87,581.79,657.57,583,658.51Zm4.84,24.71L586.11,682l-12.6,20.49,1.41,0.89C582.17,698.59,584.33,690.47,587.83,683.23ZM488,714.9l-1.2,0c0,4.85.31,9.72-.09,14.53-0.36,4.38,1.38,5.89,5.44,5.69Zm-29.15,27-7.48-3.64-8.46,11.29,12.89-6.23Zm149.27-89.4-1,1c5.78,12,6.3,12.57,14,14.06ZM461.86,683.79l0.83-1.85-20-9.18-1,2.15Zm141.94-4c-8,3.37-11.31,10.08-14,18.58ZM478,729c1.19-8.07,3.59-16.12,0-24v24Zm-7.75-12-1.15-.05-0.55,11,1.7,0v-10.9Z" transform="translate(-242.08 -222.94)"/></svg>